<svg width="70" height="70" viewBox="0 0 70 70" fill="none" xmlns="http://www.w3.org/2000/svg">
<rect width="70" height="70" fill="#E0E0E0"/>
<rect x="59" width="11" height="70" fill="url(#paint0_linear_271_3859)"/>
<path opacity="0.8" d="M19.8394 46.176C20.458 46.3787 20.9487 46.72 21.3114 47.2C21.674 47.6693 21.8554 48.256 21.8554 48.96C21.8554 49.9307 21.482 50.6827 20.7354 51.216C19.9887 51.7387 18.9007 52 17.4714 52H11.9034V40.8H17.1514C18.474 40.8 19.4927 41.0613 20.2074 41.584C20.922 42.096 21.2794 42.8053 21.2794 43.712C21.2794 44.2667 21.1514 44.7573 20.8954 45.184C20.6394 45.6107 20.2874 45.9413 19.8394 46.176ZM13.9834 42.432V45.52H16.9274C17.6527 45.52 18.2074 45.392 18.5914 45.136C18.986 44.8693 19.1834 44.4853 19.1834 43.984C19.1834 43.472 18.986 43.088 18.5914 42.832C18.2074 42.5653 17.6527 42.432 16.9274 42.432H13.9834ZM17.3434 50.368C18.954 50.368 19.7594 49.8293 19.7594 48.752C19.7594 47.6747 18.954 47.136 17.3434 47.136H13.9834V50.368H17.3434ZM31.8193 49.408H26.2193L25.1153 52H22.9713L28.0113 40.8H30.0593L35.1153 52H32.9393L31.8193 49.408ZM31.1313 47.776L29.0193 42.88L26.9233 47.776H31.1313ZM42.0474 52.16C40.9167 52.16 39.8927 51.9147 38.9754 51.424C38.0687 50.9227 37.354 50.2347 36.8314 49.36C36.3194 48.4853 36.0634 47.4987 36.0634 46.4C36.0634 45.3013 36.3247 44.3147 36.8474 43.44C37.37 42.5653 38.0847 41.8827 38.9914 41.392C39.9087 40.8907 40.9327 40.64 42.0634 40.64C42.9807 40.64 43.818 40.8 44.5754 41.12C45.3327 41.44 45.9727 41.904 46.4954 42.512L45.1514 43.776C44.3407 42.9013 43.3434 42.464 42.1594 42.464C41.3914 42.464 40.7034 42.6347 40.0954 42.976C39.4874 43.3067 39.0127 43.7707 38.6714 44.368C38.33 44.9653 38.1594 45.6427 38.1594 46.4C38.1594 47.1573 38.33 47.8347 38.6714 48.432C39.0127 49.0293 39.4874 49.4987 40.0954 49.84C40.7034 50.1707 41.3914 50.336 42.1594 50.336C43.3434 50.336 44.3407 49.8933 45.1514 49.008L46.4954 50.288C45.9727 50.896 45.3274 51.36 44.5594 51.68C43.802 52 42.9647 52.16 42.0474 52.16ZM52.8244 47.312L51.0484 49.136V52H48.9684V40.8H51.0484V46.544L56.5844 40.8H58.9204L54.2164 45.808L59.2084 52H56.7764L52.8244 47.312Z" fill="#0E1724"/>
<path opacity="0.8" d="M36.9995 17L28.9995 25L36.9995 33" stroke="#0E1724" stroke-width="3" stroke-linejoin="round"/>
<defs>
<linearGradient id="paint0_linear_271_3859" x1="70" y1="24" x2="59" y2="24" gradientUnits="userSpaceOnUse">
<stop stop-opacity="0.3"/>
<stop offset="1" stop-color="white" stop-opacity="0"/>
</linearGradient>
</defs>
</svg>
