<svg width="234" height="60" viewBox="0 0 234 60" fill="none" xmlns="http://www.w3.org/2000/svg">
<rect width="234" height="60" fill="#55C6D7"/>
<path d="M90.6478 36V24.8H95.8958C97.2398 24.8 98.2638 25.0667 98.9678 25.6C99.6718 26.1227 100.024 26.8267 100.024 27.712C100.024 28.3093 99.8851 28.8213 99.6078 29.248C99.3304 29.664 98.9571 29.9893 98.4878 30.224C98.0291 30.448 97.5278 30.56 96.9838 30.56L97.2718 29.984C97.9011 29.984 98.4664 30.1013 98.9678 30.336C99.4691 30.56 99.8638 30.8907 100.152 31.328C100.45 31.7653 100.6 32.3093 100.6 32.96C100.6 33.92 100.232 34.6667 99.4958 35.2C98.7598 35.7333 97.6664 36 96.2158 36H90.6478ZM92.7278 34.368H96.0878C96.8664 34.368 97.4638 34.24 97.8798 33.984C98.2958 33.728 98.5038 33.3173 98.5038 32.752C98.5038 32.1973 98.2958 31.792 97.8798 31.536C97.4638 31.2693 96.8664 31.136 96.0878 31.136H92.5678V29.52H95.6718C96.3971 29.52 96.9518 29.392 97.3358 29.136C97.7304 28.88 97.9278 28.496 97.9278 27.984C97.9278 27.4613 97.7304 27.072 97.3358 26.816C96.9518 26.56 96.3971 26.432 95.6718 26.432H92.7278V34.368ZM105.22 29.456H110.788V31.168H105.22V29.456ZM105.38 34.256H111.7V36H103.3V24.8H111.476V26.544H105.38V34.256ZM119.73 36.16C118.856 36.16 118.05 36.0213 117.314 35.744C116.589 35.456 115.954 35.056 115.41 34.544C114.866 34.0213 114.445 33.408 114.146 32.704C113.848 32 113.698 31.232 113.698 30.4C113.698 29.568 113.848 28.8 114.146 28.096C114.445 27.392 114.866 26.784 115.41 26.272C115.965 25.7493 116.61 25.3493 117.346 25.072C118.082 24.784 118.888 24.64 119.762 24.64C120.712 24.64 121.565 24.7947 122.322 25.104C123.09 25.4133 123.736 25.8667 124.258 26.464L122.946 27.744C122.509 27.3067 122.034 26.9867 121.522 26.784C121.021 26.5707 120.466 26.464 119.858 26.464C119.272 26.464 118.728 26.56 118.226 26.752C117.725 26.944 117.293 27.216 116.93 27.568C116.568 27.92 116.285 28.336 116.082 28.816C115.89 29.296 115.794 29.824 115.794 30.4C115.794 30.9653 115.89 31.488 116.082 31.968C116.285 32.448 116.568 32.8693 116.93 33.232C117.293 33.584 117.72 33.856 118.21 34.048C118.701 34.24 119.245 34.336 119.842 34.336C120.397 34.336 120.93 34.2507 121.442 34.08C121.965 33.8987 122.461 33.6 122.93 33.184L124.114 34.736C123.528 35.2053 122.845 35.5627 122.066 35.808C121.298 36.0427 120.52 36.16 119.73 36.16ZM122.146 34.464V30.272H124.114V34.736L122.146 34.464ZM127.338 36V24.8H129.418V36H127.338ZM132.927 36V24.8H134.639L141.663 33.424H140.815V24.8H142.879V36H141.167L134.143 27.376H134.991V36H132.927Z" fill="#0E1724"/>
</svg>
