<svg width="89" height="85" viewBox="0 0 89 85" fill="none" xmlns="http://www.w3.org/2000/svg">
<g filter="url(#filter0_d_271_3860)">
<rect x="4" width="85" height="85" fill="#55C6D7"/>
<path d="M35.6054 55.8V67H33.8934L27.7174 59.416V67H25.6534V55.8H27.3654L33.5414 63.384V55.8H35.6054ZM47.4865 65.256V67H39.0865V55.8H47.2625V57.544H41.1665V60.456H46.5745V62.168H41.1665V65.256H47.4865ZM57.2163 67L54.1763 62.744L51.1683 67H48.8003L52.9603 61.288L49.0243 55.8H51.3763L54.2403 59.784L57.0723 55.8H59.3283L55.4083 61.208L59.6163 67H57.2163ZM63.5216 57.56H59.8096V55.8H69.3136V57.56H65.6016V67H63.5216V57.56Z" fill="#0E1724"/>
<path d="M41 46L53 34L41 22.0001" stroke="#0E1724" stroke-width="5" stroke-linejoin="round"/>
</g>
<defs>
<filter id="filter0_d_271_3860" x="0" y="0" width="93" height="93" filterUnits="userSpaceOnUse" color-interpolation-filters="sRGB">
<feFlood flood-opacity="0" result="BackgroundImageFix"/>
<feColorMatrix in="SourceAlpha" type="matrix" values="0 0 0 0 0 0 0 0 0 0 0 0 0 0 0 0 0 0 127 0" result="hardAlpha"/>
<feOffset dy="4"/>
<feGaussianBlur stdDeviation="2"/>
<feColorMatrix type="matrix" values="0 0 0 0 0 0 0 0 0 0 0 0 0 0 0 0 0 0 0.25 0"/>
<feBlend mode="normal" in2="BackgroundImageFix" result="effect1_dropShadow_271_3860"/>
<feBlend mode="normal" in="SourceGraphic" in2="effect1_dropShadow_271_3860" result="shape"/>
</filter>
</defs>
</svg>
